<svg width="98" height="100" viewBox="0 0 98 100" fill="none" xmlns="http://www.w3.org/2000/svg">
<path d="M93 49.5385C93 74.188 73.2491 94.0769 49 94.0769C24.7508 94.0769 5 74.188 5 49.5385C5 24.8889 24.7508 5 49 5C73.2491 5 93 24.8889 93 49.5385Z" fill="white" stroke="#FFC300" stroke-width="10"/>
<path d="M38.576 68.8828L54.512 32.1628H54.896L70.832 68.8828H62.768L52.592 43.0588L57.632 39.6028L45.44 68.8828H38.576ZM49.472 56.1148H60.08L62.528 61.9708H47.312L49.472 56.1148Z" fill="#FC5454"/>
<path d="M53.888 30.0588L46.688 43.8828L42.896 41.8188C43.568 41.5628 44.256 41.4348 44.96 41.4348C46.08 41.4028 47.2 41.5308 48.32 41.8188C49.44 42.1068 50.448 42.6188 51.344 43.3548C52.272 44.0908 53.008 45.0988 53.552 46.3788C54.128 47.6588 54.416 49.2908 54.416 51.2748C54.416 53.5788 53.872 55.5628 52.784 57.2268C51.728 58.8588 50.336 60.1068 48.608 60.9708C46.88 61.8348 45.008 62.2668 42.992 62.2668C41.424 62.2668 39.776 61.9468 38.048 61.3068C36.32 60.6348 34.944 59.7548 33.92 58.6668L37.472 52.9068C37.952 53.5148 38.688 54.1068 39.68 54.6828C40.672 55.2588 41.712 55.5468 42.8 55.5468C43.856 55.5468 44.848 55.1468 45.776 54.3468C46.736 53.5468 47.216 52.3788 47.216 50.8428C47.216 49.4348 46.816 48.3148 46.016 47.4828C45.248 46.6508 44.16 46.2348 42.752 46.2348C41.792 46.2348 41.056 46.2828 40.544 46.3788C40.064 46.4428 39.584 46.5388 39.104 46.6668L38.96 46.4748L44.576 35.9628L46.592 36.7788H36.56V30.0588H53.888Z" fill="#6D7AFF"/>
</svg>
